<svg id="Layer_1" enable-background="new 0 0 64 64" height="512" viewBox="0 0 64 64" width="512" xmlns="http://www.w3.org/2000/svg"><g><g><path d="m22.7 22.01h-6.2c-.54 0-.97.43-.97.97v5.55c0 .54.43.97.97.97h6.2c.54 0 .97-.43.97-.97v-5.55c0-.54-.43-.97-.97-.97zm-.97 5.55h-4.26v-3.61h4.26z"/><path d="m36.55 29.5h6.2c.54 0 .97-.43.97-.97v-5.55c0-.54-.43-.97-.97-.97h-6.2c-.54 0-.97.43-.97.97v5.55c0 .54.43.97.97.97zm.97-5.55h4.26v3.61h-4.26z"/><path d="m46.57 29.5h6.2c.54 0 .97-.43.97-.97v-5.55c0-.54-.43-.97-.97-.97h-6.2c-.54 0-.97.43-.97.97v5.55c0 .54.43.97.97.97zm.97-5.55h4.26v3.61h-4.26z"/><path d="m12.68 31.3h-6.2c-.54 0-.97.43-.97.97v5.55c0 .54.43.97.97.97h6.2c.54 0 .97-.43.97-.97v-5.55c0-.53-.43-.97-.97-.97zm-.97 5.56h-4.25v-3.61h4.26v3.61z"/><path d="m22.7 31.3h-6.2c-.54 0-.97.43-.97.97v5.55c0 .54.43.97.97.97h6.2c.54 0 .97-.43.97-.97v-5.55c0-.53-.43-.97-.97-.97zm-.97 5.56h-4.26v-3.61h4.26z"/><path d="m32.72 31.3h-6.2c-.54 0-.97.43-.97.97v5.55c0 .54.43.97.97.97h6.2c.54 0 .97-.43.97-.97v-5.55c0-.53-.43-.97-.97-.97zm-.97 5.56h-4.25v-3.61h4.26v3.61z"/><path d="m12.68 40.6h-6.2c-.54 0-.97.43-.97.97v5.55c0 .54.43.97.97.97h6.2c.54 0 .97-.43.97-.97v-5.55c0-.54-.43-.97-.97-.97zm-.97 5.55h-4.25v-3.61h4.26v3.61z"/><path d="m22.7 40.6h-6.2c-.54 0-.97.43-.97.97v5.55c0 .54.43.97.97.97h6.2c.54 0 .97-.43.97-.97v-5.55c0-.54-.43-.97-.97-.97zm-.97 5.55h-4.26v-3.61h4.26z"/><path d="m32.72 40.6h-6.2c-.54 0-.97.43-.97.97v5.55c0 .54.43.97.97.97h6.2c.54 0 .97-.43.97-.97v-5.55c0-.54-.43-.97-.97-.97zm-.97 5.55h-4.25v-3.61h4.26v3.61z"/><path d="m59.25 36.42v-25.46c0-2.13-1.73-3.87-3.87-3.87h-4.63v-1.48c0-1.78-1.45-3.22-3.22-3.22-1.78 0-3.22 1.45-3.22 3.22v1.49h-29.37v-1.49c0-1.78-1.45-3.22-3.22-3.22-1.78 0-3.22 1.45-3.22 3.22v1.49h-4.63c-2.14 0-3.87 1.73-3.87 3.86v38.47c0 2.13 1.73 3.87 3.87 3.87h32.55c2.32 4.91 7.31 8.31 13.09 8.31 7.99 0 14.49-6.5 14.49-14.49 0-4.24-1.84-8.04-4.75-10.7zm-11.72-32.09c.71 0 1.28.58 1.28 1.28v4.91c0 .71-.58 1.28-1.28 1.28-.71 0-1.28-.58-1.28-1.28v-2.45-2.46c0-.71.57-1.28 1.28-1.28zm-37.1 1.28c0-.71.58-1.28 1.28-1.28.72 0 1.29.57 1.29 1.28v2.45.01.01 2.45c0 .71-.58 1.28-1.28 1.28-.71 0-1.28-.58-1.28-1.28v-4.92zm-6.56 3.43h4.63v1.48c0 1.78 1.45 3.22 3.22 3.22 1.78 0 3.22-1.45 3.22-3.22v-1.48h29.37v1.48c0 1.78 1.45 3.22 3.22 3.22 1.78 0 3.22-1.45 3.22-3.22v-1.48h4.63c1.06 0 1.93.86 1.93 1.93v5.67h-55.37v-5.67c0-1.07.86-1.93 1.93-1.93zm0 42.32c-1.06 0-1.93-.86-1.93-1.93v-30.86h55.37v16.36c-2.25-1.45-4.93-2.3-7.8-2.3-7.99 0-14.49 6.5-14.49 14.49 0 1.47.22 2.9.64 4.24zm45.64 8.31c-6.92 0-12.55-5.63-12.55-12.55s5.63-12.55 12.55-12.55 12.55 5.63 12.55 12.55-5.63 12.55-12.55 12.55z"/><path d="m49.51 38.67c.54 0 .97-.43.97-.97v-.8c0-.54-.43-.97-.97-.97s-.97.43-.97.97v.8c0 .54.43.97.97.97z"/><path d="m42.97 39.21c-.38-.38-.99-.38-1.37 0s-.38.99 0 1.37l.57.57c.19.19.44.28.69.28s.5-.09.69-.28c.38-.38.38-.99 0-1.37z"/><path d="m40.09 46.15h-.8c-.54 0-.97.43-.97.97s.43.97.97.97h.8c.54 0 .97-.43.97-.97s-.43-.97-.97-.97z"/><path d="m42.17 53.09-.57.57c-.38.38-.38.99 0 1.37.19.19.44.28.69.28s.5-.09.69-.28l.57-.57c.38-.38.38-.99 0-1.37-.39-.38-1.01-.38-1.38 0z"/><path d="m49.51 55.57c-.54 0-.97.43-.97.97v.8c0 .54.43.97.97.97s.97-.43.97-.97v-.8c0-.54-.43-.97-.97-.97z"/><path d="m56.85 53.09c-.38-.38-.99-.38-1.37 0s-.38.99 0 1.37l.57.57c.19.19.44.28.68.28s.5-.09.69-.28c.38-.38.38-.99 0-1.37z"/><path d="m59.73 46.15h-.8c-.54 0-.97.43-.97.97s.43.97.97.97h.8c.54 0 .97-.43.97-.97s-.44-.97-.97-.97z"/><path d="m56.05 39.21-.57.57c-.38.38-.38.99 0 1.37.19.19.44.29.69.29s.5-.09.68-.28l.57-.57c.38-.38.38-.99 0-1.37-.38-.39-.99-.39-1.37-.01z"/><path d="m53.05 46.15h-2.57v-5.33c0-.54-.43-.97-.97-.97s-.97.43-.97.97v6.3c0 .54.43.97.97.97h3.54c.54 0 .97-.43.97-.97s-.44-.97-.97-.97z"/></g></g></svg>