<?xml version="1.0" encoding="UTF-8"?>
<svg xmlns="http://www.w3.org/2000/svg" id="Icons" viewBox="0 0 60 60" width="512" height="512"><path d="M58,35.184V26a3.981,3.981,0,0,0-2-3.461V18a4,4,0,0,0-3.134-3.9,1.99,1.99,0,0,0-.75-2.37L39,2.912V2a2,2,0,0,0-2-2H13a2,2,0,0,0-2,2V14H7.25A7.193,7.193,0,0,0,0,20.82V53a7.008,7.008,0,0,0,7,7H54a4,4,0,0,0,4-4V46.816A3,3,0,0,0,60,44V38A3,3,0,0,0,58,35.184ZM47.622,22l1.345-2H52a2,2,0,0,1,2,2ZM54,18v.556A3.959,3.959,0,0,0,52,18H50.312l1.345-2H52A2,2,0,0,1,54,18Zm-3-4.609L45.212,22H42.8l2.977-4.428a1.656,1.656,0,0,0-.363-2.263c-2.426-1.793-2.532-3.283-2.466-3.839a1.628,1.628,0,0,0-.7-1.556L39,7.731V5.322Zm-7.05,3.316L40.392,22H39V10.142l1.945,1.308C40.89,12.445,41.175,14.538,43.951,16.707ZM37,2V22H35V8.385a1.655,1.655,0,0,0-1.564-1.677C30.422,6.573,29.5,5.4,29.248,4.9A1.634,1.634,0,0,0,27.794,4H22.206a1.632,1.632,0,0,0-1.453.9c-.255.5-1.175,1.676-4.187,1.811A1.655,1.655,0,0,0,15,8.385V22H13V2ZM21,22a4,4,0,0,1,8,0Zm4-6a6.006,6.006,0,0,0-6,6H17V8.687c3.425-.243,4.852-1.7,5.429-2.687h5.142c.577.985,2,2.444,5.429,2.687V22H31A6.006,6.006,0,0,0,25,16ZM11,22H8a1,1,0,0,1-1-1,.978.978,0,0,1,.306-.713A.965.965,0,0,1,8,20h3ZM54,58H7a5.006,5.006,0,0,1-5-5V20.851A5.174,5.174,0,0,1,7.25,16H11v2H8a3.015,3.015,0,0,0-3,3,3,3,0,0,0,3,3H54a1.8,1.8,0,0,1,.639.112l0,0a.39.39,0,0,0,.035.019A1.972,1.972,0,0,1,56,26v9H47a6,6,0,0,0,0,12h9v9A2,2,0,0,1,54,58Zm4-14a1,1,0,0,1-1,1H47a4,4,0,0,1,0-8H57a1,1,0,0,1,1,1Z"/><path d="M25,8a3,3,0,1,0,3,3A3,3,0,0,0,25,8Zm0,4a1,1,0,1,1,1-1A1,1,0,0,1,25,12Z"/><path d="M49,40H47a1,1,0,0,0,0,2h2a1,1,0,0,0,0-2Z"/></svg>
