<svg id="Layer_1" enable-background="new 0 0 512 512" height="512" viewBox="0 0 512 512" width="512" xmlns="http://www.w3.org/2000/svg"><path d="m509.742 239.213-22.846-39.57v-53.652c0-9.306-7.571-16.876-16.877-16.876h-23.843l-48.769-84.469c-2.25-3.898-5.89-6.688-10.249-7.856-4.358-1.169-8.906-.572-12.804 1.679l-157.004 90.646h-169.859c-9.306 0-16.877 7.571-16.877 16.876v90.936l-22.178 12.806c-3.899 2.25-6.689 5.891-7.857 10.25-1.168 4.358-.571 8.906 1.68 12.804l28.356 49.115v48.758c0 9.306 7.571 16.876 16.877 16.876h21.017l46.083 79.818c2.251 3.899 5.891 6.689 10.25 7.857 1.458.391 2.937.584 4.405.584 2.922 0 5.805-.766 8.398-2.264l148.949-85.996h183.426c9.306 0 16.877-7.57 16.877-16.876v-98.768l16.668-9.623c8.059-4.653 10.831-14.995 6.177-23.055zm-127.387-186.888c.202-.118.424-.145.663-.081.237.063.417.198.534.401l44.15 76.469h-12.276l-16.782-29.068c-1.061-1.837-2.808-3.178-4.857-3.728-2.048-.55-4.233-.261-6.07.799-5.285 3.052-11.44 3.86-17.334 2.283-5.895-1.58-10.82-5.359-13.872-10.644-2.209-3.825-7.099-5.137-10.928-2.928l-74.972 43.285h-21.26zm14.598 76.79h-94.341l44.754-25.839c4.982 5.581 11.481 9.599 18.876 11.58 7.396 1.981 15.033 1.75 22.138-.591zm-380.84 135.671c-.117-.203-.144-.426-.08-.663s.198-.417.401-.534l14.18-8.186v34.5zm113.532 194.89c-.203.115-.426.144-.663.08s-.417-.198-.534-.401l-41.465-71.819h12.277l14.097 24.417c1.061 1.838 2.808 3.179 4.857 3.728 2.047.549 4.232.262 6.07-.8 5.284-3.051 11.438-3.859 17.334-2.282 5.894 1.58 10.819 5.36 13.871 10.645 1.061 1.838 2.808 3.178 4.857 3.728.681.183 1.377.272 2.07.272 1.393 0 2.773-.363 4-1.072l66.916-38.635h21.264zm-11.912-72.141h83.601l-36.699 21.188c-4.983-5.58-11.482-9.599-18.877-11.58-7.396-1.981-15.032-1.751-22.137.59zm353.163-16.876c0 .467-.41.876-.877.876h-422.528c-.467 0-.877-.409-.877-.876v-224.668c0-.467.41-.876.877-.876h422.529c.467 0 .877.41.877.876v224.668zm25.071-122.782c-.063.237-.198.417-.401.534l-8.669 5.005v-21.773l8.989 15.57c.117.203.144.427.081.664zm-43.701-61.289c-12.596 0-22.844-10.248-22.844-22.844 0-4.418-3.582-8-8-8h-325.333c-4.418 0-8 3.582-8 8 0 12.596-10.248 22.844-22.845 22.844-4.418 0-8 3.582-8 8v127.472c0 4.418 3.582 8 8 8 12.597 0 22.845 10.248 22.845 22.844 0 4.418 3.582 8 8 8h325.333c4.418 0 8-3.582 8-8 0-12.596 10.248-22.844 22.844-22.844 4.418 0 8-3.582 8-8v-127.472c0-4.418-3.582-8-8-8zm-8 128.301c-15.012 3.155-26.86 15.004-30.016 30.016h-310.989c-3.155-15.012-15.005-26.86-30.017-30.016v-113.129c15.012-3.155 26.861-15.004 30.017-30.016h310.989c3.155 15.011 15.004 26.86 30.016 30.016zm-58.851-80.654c-13.283 0-24.09 10.806-24.09 24.089s10.807 24.09 24.09 24.09 24.09-10.807 24.09-24.09c0-13.282-10.807-24.089-24.09-24.089zm0 32.179c-4.461 0-8.09-3.629-8.09-8.09 0-4.46 3.629-8.089 8.09-8.089s8.09 3.628 8.09 8.089-3.629 8.09-8.09 8.09zm-253.318-32.179c-13.283 0-24.09 10.806-24.09 24.089s10.807 24.09 24.09 24.09c13.282 0 24.089-10.807 24.089-24.09 0-13.282-10.807-24.089-24.089-24.089zm0 32.179c-4.461 0-8.09-3.629-8.09-8.09 0-4.46 3.629-8.089 8.09-8.089 4.46 0 8.089 3.628 8.089 8.089s-3.629 8.09-8.089 8.09zm156.796 7.232c.774 6.38-.952 12.221-4.992 16.892-3.95 4.567-10.093 7.816-17.145 9.214v2.597c0 4.418-3.582 8-8 8s-8-3.582-8-8v-2.731c-11.033-2.518-19.461-10.135-22.081-20.642-1.068-4.287 1.54-8.629 5.827-9.698 4.285-1.063 8.629 1.541 9.698 5.827 1.787 7.171 9.379 9.555 15.273 9.406 5.183-.123 10.135-1.907 12.325-4.44 1.065-1.23 1.438-2.617 1.211-4.495-.262-2.156-.876-7.207-15.486-9.605-22.462-3.688-26.405-16.381-26.756-23.619-.579-11.92 7.416-21.927 19.988-25.173v-2.874c0-4.418 3.582-8 8-8s8 3.582 8 8v2.802c8.132 2.009 15.795 7.316 19.856 16.99 1.711 4.074-.205 8.763-4.279 10.473-4.068 1.709-8.763-.205-10.473-4.279-3.048-7.258-10.538-9.118-16.608-7.741-1.478.335-8.828 2.344-8.504 9.026.086 1.768.313 6.463 13.367 8.606 17.556 2.88 27.238 10.775 28.779 23.464zm-30.138-89.896c-41.121 0-74.575 33.454-74.575 74.575s33.454 74.575 74.575 74.575 74.575-33.454 74.575-74.575-33.454-74.575-74.575-74.575zm0 133.149c-32.299 0-58.575-26.276-58.575-58.575 0-32.298 26.276-58.575 58.575-58.575s58.575 26.276 58.575 58.575-26.276 58.575-58.575 58.575z"/></svg>