<?xml version="1.0"?>
<svg xmlns="http://www.w3.org/2000/svg" viewBox="0 0 88 88" width="512" height="512"><g id="Box"><path d="M81.4756,22.12l-37-20a1.0019,1.0019,0,0,0-.9512,0l-37,20A1.0273,1.0273,0,0,0,6,23V65a1,1,0,0,0,.5244.88l37,20A1.001,1.001,0,0,0,44,86a1.1423,1.1423,0,0,0,.4756-.12l37-20A1,1,0,0,0,82,65V23A1.0309,1.0309,0,0,0,81.4756,22.12ZM21.67,32.0669c1.7376.9389.2709.1461,7.66,4.14v12.89l-3.0127-4.2715a1.0008,1.0008,0,0,0-1.1367-.3716L21.67,45.6377ZM78.8968,23,44,41.8632,32.4337,35.611,67.3309,16.748ZM65.2275,15.6113,30.3314,34.4737c-5.043-2.7249-3.3361-1.8024-7.5589-4.085L57.6694,11.5259ZM44,4.1367l11.5665,6.2522L20.6693,29.2518,9.1032,23ZM8,24.6775l11.67,6.308V47.03a1,1,0,0,0,1.3194.9477l4.1235-1.39,4.4,6.2383A1,1,0,0,0,31.33,52.25V37.2883L43,43.5964V83.3228L8,64.4038ZM45,83.3228V43.5964L80,24.6775V64.4038Z"/><path d="M24.55,65.3921,11.4756,58.3252a1,1,0,0,0-.9512,1.76l13.0742,7.0669a1,1,0,0,0,.9512-1.76Z"/><path d="M16.22,64.3l-4.7441-2.5644a1,1,0,1,0-.9512,1.76L15.2686,66.06A1,1,0,0,0,16.22,64.3Z"/></g></svg>
