<?xml version="1.0" encoding="iso-8859-1"?>
<!-- Generator: Adobe Illustrator 19.0.0, SVG Export Plug-In . SVG Version: 6.00 Build 0)  -->
<svg version="1.1" id="Capa_1" xmlns="http://www.w3.org/2000/svg" xmlns:xlink="http://www.w3.org/1999/xlink" x="0px" y="0px"
	 viewBox="0 0 512 512" style="enable-background:new 0 0 512 512;" xml:space="preserve">
<g>
	<g>
		<path d="M437.02,74.98C388.667,26.629,324.38,0,256,0S123.333,26.629,74.98,74.98C26.629,123.333,0,187.62,0,256
			s26.629,132.667,74.98,181.02C123.333,485.371,187.62,512,256,512s132.667-26.629,181.02-74.98
			C485.371,388.667,512,324.38,512,256S485.371,123.333,437.02,74.98z M426.413,426.413C380.894,471.932,320.374,497,256,497
			s-124.894-25.068-170.413-70.587C40.068,380.894,15,320.374,15,256S40.068,131.106,85.587,85.587
			C131.106,40.068,191.626,15,256,15s124.894,25.068,170.413,70.587C471.932,131.106,497,191.626,497,256
			S471.932,380.894,426.413,426.413z"/>
	</g>
</g>
<g>
	<g>
		<path d="M396.495,92.028c-41.178-35.356-93.819-53.755-148.261-51.81c-54.713,1.957-106.178,24.367-144.913,63.103
			c-38.736,38.735-61.146,90.201-63.103,144.915c-1.947,54.43,16.454,107.084,51.813,148.263c1.483,1.728,3.582,2.614,5.693,2.614
			c1.729,0,3.468-0.595,4.882-1.81c3.143-2.698,3.503-7.434,0.804-10.576c-32.892-38.309-50.012-87.302-48.2-137.954
			c1.821-50.911,22.674-98.8,58.719-134.845c36.044-36.044,83.932-56.897,134.842-58.719c50.656-1.812,99.644,15.306,137.953,48.199
			c3.143,2.698,7.878,2.338,10.576-0.804C399.998,99.462,399.638,94.727,396.495,92.028z"/>
	</g>
</g>
<g>
	<g>
		<path d="M419.971,115.504c-2.699-3.143-7.434-3.503-10.576-0.804c-3.143,2.698-3.503,7.433-0.805,10.576
			c32.894,38.31,50.012,87.303,48.2,137.953c-1.821,50.911-22.674,98.798-58.718,134.842
			c-36.045,36.045-83.934,56.898-134.845,58.719c-50.655,1.808-99.645-15.307-137.955-48.203c-3.143-2.698-7.878-2.338-10.576,0.805
			c-2.699,3.143-2.338,7.877,0.804,10.576c39.203,33.662,88.799,51.955,140.434,51.953c2.602,0,5.217-0.047,7.828-0.14
			c54.714-1.957,106.18-24.367,144.916-63.103c38.735-38.734,61.146-90.199,63.103-144.913
			C473.728,209.336,455.328,156.683,419.971,115.504z"/>
	</g>
</g>
<g>
	<g>
		<path d="M256,72.146c-4.142,0-7.5,3.357-7.5,7.5v24.048c0,4.142,3.358,7.499,7.5,7.499c4.142,0,7.5-3.357,7.5-7.5V79.646
			C263.5,75.503,260.142,72.146,256,72.146z"/>
	</g>
</g>
<g>
	<g>
		<path d="M256,400.807c-4.142,0-7.5,3.357-7.5,7.5v24.048c0,4.143,3.358,7.5,7.5,7.5c4.142,0,7.5-3.357,7.5-7.5v-24.048
			C263.5,404.164,260.142,400.807,256,400.807z"/>
	</g>
</g>
<g>
	<g>
		<path d="M432.355,248.5h-24.048c-4.142,0-7.5,3.358-7.5,7.5c0,4.142,3.358,7.5,7.5,7.5h24.048c4.142,0,7.5-3.358,7.5-7.5
			C439.855,251.858,436.497,248.5,432.355,248.5z"/>
	</g>
</g>
<g>
	<g>
		<path d="M103.693,248.5H79.645c-4.142,0-7.5,3.358-7.5,7.5c0,4.142,3.358,7.5,7.5,7.5h24.048c4.142,0,7.5-3.358,7.5-7.5
			C111.193,251.858,107.835,248.5,103.693,248.5z"/>
	</g>
</g>
<g>
	<g>
		<path d="M120.907,169.344l-13.884-8.017c-3.587-2.071-8.174-0.842-10.245,2.745c-2.071,3.587-0.842,8.174,2.745,10.245
			l13.884,8.017c1.181,0.682,2.47,1.006,3.743,1.006c2.592,0,5.113-1.345,6.502-3.751
			C125.723,176.002,124.494,171.415,120.907,169.344z"/>
	</g>
</g>
<g>
	<g>
		<path d="M412.477,337.683l-13.884-8.017c-3.587-2.071-8.174-0.842-10.245,2.745c-2.071,3.587-0.842,8.174,2.745,10.245
			l13.884,8.017c1.181,0.682,2.471,1.006,3.743,1.006c2.592,0,5.113-1.345,6.502-3.751
			C417.293,344.341,416.064,339.754,412.477,337.683z"/>
	</g>
</g>
<g>
	<g>
		<path d="M347.927,96.778c-3.587-2.072-8.174-0.843-10.245,2.745l-8.016,13.884c-2.071,3.587-0.842,8.174,2.745,10.245
			c1.181,0.682,2.471,1.006,3.743,1.006c2.592,0,5.113-1.345,6.502-3.751l8.016-13.884
			C352.743,103.436,351.514,98.849,347.927,96.778z"/>
	</g>
</g>
<g>
	<g>
		<path d="M179.589,388.349c-3.587-2.072-8.174-0.843-10.245,2.745l-8.016,13.884c-2.071,3.587-0.842,8.174,2.745,10.245
			c1.181,0.683,2.471,1.006,3.743,1.006c2.592,0,5.113-1.345,6.502-3.751l8.016-13.884
			C184.405,395.006,183.176,390.419,179.589,388.349z"/>
	</g>
</g>
<g>
	<g>
		<path d="M415.223,164.072c-2.072-3.587-6.659-4.815-10.245-2.745l-13.884,8.017c-3.587,2.071-4.816,6.658-2.745,10.245
			c1.389,2.406,3.91,3.751,6.502,3.751c1.272,0,2.562-0.324,3.743-1.006l13.884-8.017
			C416.065,172.246,417.294,167.659,415.223,164.072z"/>
	</g>
</g>
<g>
	<g>
		<path d="M123.652,332.411c-2.071-3.587-6.658-4.815-10.245-2.745l-13.884,8.017c-3.587,2.071-4.816,6.658-2.745,10.245
			c1.389,2.406,3.91,3.751,6.502,3.751c1.272,0,2.562-0.324,3.743-1.006l13.884-8.017
			C124.494,340.585,125.723,335.999,123.652,332.411z"/>
	</g>
</g>
<g>
	<g>
		<path d="M182.334,113.406l-8.016-13.884c-2.071-3.588-6.658-4.816-10.245-2.745s-4.816,6.658-2.745,10.245l8.016,13.884
			c1.389,2.406,3.91,3.751,6.502,3.751c1.272,0,2.562-0.324,3.743-1.006C183.176,121.581,184.405,116.994,182.334,113.406z"/>
	</g>
</g>
<g>
	<g>
		<path d="M350.672,404.978l-8.016-13.884c-2.071-3.588-6.657-4.817-10.245-2.745c-3.587,2.071-4.816,6.658-2.745,10.245
			l8.016,13.884c1.389,2.406,3.91,3.751,6.502,3.751c1.272,0,2.562-0.324,3.743-1.006
			C351.514,413.152,352.743,408.565,350.672,404.978z"/>
	</g>
</g>
<g>
	<g>
		<path d="M360.209,248.5H278.3c-2.344-6.951-7.849-12.455-14.8-14.8v-97.942c0-4.142-3.358-7.5-7.5-7.5c-4.142,0-7.5,3.358-7.5,7.5
			V233.7c-6.951,2.345-12.455,7.849-14.8,14.8h-9.765c-4.142,0-7.5,3.358-7.5,7.5c0,4.142,3.358,7.5,7.5,7.5h9.765
			c2.344,6.951,7.849,12.455,14.8,14.8v9.765c0,4.142,3.358,7.5,7.5,7.5c4.142,0,7.5-3.358,7.5-7.5V278.3
			c6.951-2.345,12.455-7.849,14.8-14.8h81.91c4.142,0,7.499-3.358,7.499-7.5C367.709,251.858,364.351,248.5,360.209,248.5z
			 M256,264.532c-4.705,0-8.532-3.828-8.532-8.532c0-4.704,3.828-8.532,8.532-8.532s8.532,3.828,8.532,8.532
			S260.705,264.532,256,264.532z"/>
	</g>
</g>
<g>
</g>
<g>
</g>
<g>
</g>
<g>
</g>
<g>
</g>
<g>
</g>
<g>
</g>
<g>
</g>
<g>
</g>
<g>
</g>
<g>
</g>
<g>
</g>
<g>
</g>
<g>
</g>
<g>
</g>
</svg>
